# xmcd CD database file
#
# Track frame offsets:
#	150
#	21863
#	41055
#	60972
#	81490
#	100475
#	117890
#	141160
#	159165
#	173908
#	192945
#	214075
#	236178
#
# Disc length: 3409 seconds
#
# Revision: 6
# Processed by: cddbd v1.5.1PL0 Copyright (c) Steve Scherf et al.
# Submitted via: CDex 1.51
#
DISCID=b20d4f0d
DTITLE=Crystal Kay - almost seventeen
DYEAR=2002
DGENRE=Vocal
TTITLE0=hard to say
TTITLE1=Missin' U,baby
TTITLE2=Girl U Love
TTITLE3=Shooting star dust
TTITLE4=Boyfriend(What Makes Me Fall In Love)
TTITLE5=Hide'n'Seek
TTITLE6=You're my fate
TTITLE7=Love of A Lifetime
TTITLE8=Attitude
TTITLE9=move on
TTITLE10=Song For You,A
TTITLE11=think of U
TTITLE12=Feel The Same?
EXTD=YEAR: 2002
EXTT0=
EXTT1=
EXTT2=
EXTT3=
EXTT4=
EXTT5=
EXTT6=
EXTT7=
EXTT8=
EXTT9=
EXTT10=
EXTT11=
EXTT12=
PLAYORDER=
